<svg width="88" height="88" viewBox="0 0 88 88" fill="none" xmlns="http://www.w3.org/2000/svg">
<path d="M44 0.635254C20.0194 0.635254 0.635345 20.1494 0.635345 43.9999C0.635345 67.8505 20.1494 87.3646 44 87.3646C67.8506 87.3646 87.3647 67.8505 87.3647 43.9999C87.3647 20.1494 67.8506 0.635254 44 0.635254ZM61.3459 58.9174C61.3459 60.3918 60.3919 61.3458 58.9175 61.3458H29.0826C27.6082 61.3458 26.6541 60.3918 26.6541 58.9174V57.0093H61.3459V58.9174ZM61.3459 52.6729H26.6541L22.3177 26.6541L35.3271 35.327L44 22.3176L52.6729 35.327L65.6824 26.6541L61.3459 52.6729Z" fill="#C58665"/>
</svg>
